<?xml version="1.0" encoding="UTF-8" standalone="no"?>
<!DOCTYPE svg PUBLIC "-//W3C//DTD SVG 1.1//EN"
 "http://www.w3.org/Graphics/SVG/1.1/DTD/svg11.dtd">
<!-- Generated by graphviz version 14.1.5 (0)
 -->
<!-- Title: G Pages: 1 -->
<svg width="1062pt" height="389pt"
 viewBox="9.00 9.00 1054.00 381.00" xmlns="http://www.w3.org/2000/svg" xmlns:xlink="http://www.w3.org/1999/xlink">
<g id="graph0" class="graph" transform="scale(1 1) rotate(0) translate(21.6 367.85)">
<title>G</title>
<polygon fill="white" stroke="none" points="-12.96,12.96 -12.96,-359.21 1032.21,-359.21 1032.21,12.96 -12.96,12.96"/>
<text xml:space="preserve" text-anchor="start" x="187.5" y="-324.25" font-family="Helvetica,sans-Serif" font-size="20.00"> &#160;&#160;&#160;</text>
<text xml:space="preserve" text-anchor="start" x="208.5" y="-324.25" font-family="Helvetica,sans-Serif" font-weight="bold" font-size="20.00">Figure 7. Typed state keeps GUI, code, and runtime synchronized</text>
<text xml:space="preserve" text-anchor="start" x="821.25" y="-324.25" font-family="Helvetica,sans-Serif" font-size="20.00"> &#160;</text>
<g id="clust1" class="cluster">
<title>cluster_surfaces</title>
<path fill="#f7fafc" stroke="none" stroke-width="0" d="M20,-14C20,-14 186.75,-14 186.75,-14 192.75,-14 198.75,-20 198.75,-26 198.75,-26 198.75,-295 198.75,-295 198.75,-301 192.75,-307 186.75,-307 186.75,-307 20,-307 20,-307 14,-307 8,-301 8,-295 8,-295 8,-26 8,-26 8,-20 14,-14 20,-14"/>
<text xml:space="preserve" text-anchor="middle" x="103.38" y="-284" font-family="Helvetica,sans-Serif" font-size="20.00">Editing surfaces</text>
</g>
<!-- gui -->
<g id="node1" class="node">
<title>gui</title>
<path fill="#e3f2fd" stroke="#263238" stroke-width="1.3" d="M172.12,-177C172.12,-177 34.62,-177 34.62,-177 28.62,-177 22.62,-171 22.62,-165 22.62,-165 22.62,-125 22.62,-125 22.62,-119 28.62,-113 34.62,-113 34.62,-113 172.12,-113 172.12,-113 178.12,-113 184.12,-119 184.12,-125 184.12,-125 184.12,-165 184.12,-165 184.12,-171 178.12,-177 172.12,-177"/>
<text xml:space="preserve" text-anchor="start" x="30.62" y="-160.7" font-family="Helvetica,sans-Serif" font-size="14.00"> &#160;&#160;&#160;&#160;&#160;</text>
<text xml:space="preserve" text-anchor="start" x="53.12" y="-160.7" font-family="Helvetica,sans-Serif" font-weight="bold" font-size="14.00">GUI</text>
<text xml:space="preserve" text-anchor="start" x="30.62" y="-146.7" font-family="Helvetica,sans-Serif" font-size="14.00"> &#160;&#160;&#160;&#160;&#160;parameter forms</text>
<text xml:space="preserve" text-anchor="start" x="30.62" y="-132.7" font-family="Helvetica,sans-Serif" font-size="14.00"> &#160;&#160;&#160;&#160;&#160;inheritance previews</text>
<text xml:space="preserve" text-anchor="start" x="34.38" y="-118.7" font-family="Helvetica,sans-Serif" font-size="14.00"> &#160;&#160;&#160;&#160;&#160;live / saved state &#160;&#160;&#160;</text>
</g>
<!-- state -->
<g id="node4" class="node">
<title>state</title>
<path fill="#e0f2f1" stroke="#00796b" stroke-width="2.2" d="M417.5,-92C417.5,-92 306.25,-92 306.25,-92 300.25,-92 294.25,-86 294.25,-80 294.25,-80 294.25,-12 294.25,-12 294.25,-6 300.25,0 306.25,0 306.25,0 417.5,0 417.5,0 423.5,0 429.5,-6 429.5,-12 429.5,-12 429.5,-80 429.5,-80 429.5,-86 423.5,-92 417.5,-92"/>
<text xml:space="preserve" text-anchor="start" x="302.25" y="-75.7" font-family="Helvetica,sans-Serif" font-size="14.00"> &#160;&#160;&#160;</text>
<text xml:space="preserve" text-anchor="start" x="317.25" y="-75.7" font-family="Helvetica,sans-Serif" font-weight="bold" font-size="14.00">ObjectState</text>
<text xml:space="preserve" text-anchor="start" x="302.25" y="-61.7" font-family="Helvetica,sans-Serif" font-size="14.00"> &#160;&#160;&#160;typed values</text>
<text xml:space="preserve" text-anchor="start" x="302.25" y="-47.7" font-family="Helvetica,sans-Serif" font-size="14.00"> &#160;&#160;&#160;inheritance</text>
<text xml:space="preserve" text-anchor="start" x="302.25" y="-33.7" font-family="Helvetica,sans-Serif" font-size="14.00"> &#160;&#160;&#160;provenance</text>
<text xml:space="preserve" text-anchor="start" x="302.25" y="-19.7" font-family="Helvetica,sans-Serif" font-size="14.00"> &#160;&#160;&#160;dirty tracking</text>
<text xml:space="preserve" text-anchor="start" x="302.25" y="-5.7" font-family="Helvetica,sans-Serif" font-size="14.00"> &#160;&#160;&#160;code generation &#160;</text>
</g>
<!-- gui&#45;&gt;state -->
<g id="edge1" class="edge">
<title>gui&#45;&gt;state</title>
<path fill="none" stroke="#546e7a" stroke-width="1.6" d="M184.48,-114.08C216.32,-101.79 252.79,-87.72 284.28,-75.56"/>
<polygon fill="#546e7a" stroke="#546e7a" stroke-width="1.6" points="285.14,-78.05 291.19,-72.9 283.25,-73.15 285.14,-78.05"/>
<text xml:space="preserve" text-anchor="middle" x="246.5" y="-101.52" font-family="Helvetica,sans-Serif" font-size="11.00">edit</text>
</g>
<!-- code -->
<g id="node2" class="node">
<title>code</title>
<path fill="#fff8e1" stroke="#263238" stroke-width="1.3" d="M186.38,-276C186.38,-276 20.38,-276 20.38,-276 14.38,-276 8.38,-270 8.38,-264 8.38,-264 8.38,-224 8.38,-224 8.38,-218 14.38,-212 20.38,-212 20.38,-212 186.38,-212 186.38,-212 192.38,-212 198.38,-218 198.38,-224 198.38,-224 198.38,-264 198.38,-264 198.38,-270 192.38,-276 186.38,-276"/>
<text xml:space="preserve" text-anchor="start" x="16.38" y="-259.7" font-family="Helvetica,sans-Serif" font-size="14.00"> &#160;&#160;&#160;&#160;&#160;</text>
<text xml:space="preserve" text-anchor="start" x="38.88" y="-259.7" font-family="Helvetica,sans-Serif" font-weight="bold" font-size="14.00">Generated Python</text>
<text xml:space="preserve" text-anchor="start" x="16.38" y="-245.7" font-family="Helvetica,sans-Serif" font-size="14.00"> &#160;&#160;&#160;&#160;&#160;editable source</text>
<text xml:space="preserve" text-anchor="start" x="16.38" y="-231.7" font-family="Helvetica,sans-Serif" font-size="14.00"> &#160;&#160;&#160;&#160;&#160;version control</text>
<text xml:space="preserve" text-anchor="start" x="16.38" y="-217.7" font-family="Helvetica,sans-Serif" font-size="14.00"> &#160;&#160;&#160;&#160;&#160;re&#45;importable workflow &#160;&#160;&#160;</text>
</g>
<!-- code&#45;&gt;state -->
<g id="edge2" class="edge">
<title>code&#45;&gt;state</title>
<path fill="none" stroke="#546e7a" stroke-width="1.6" d="M172.17,-211.59C181.33,-206.41 190.43,-200.83 198.75,-195 238.77,-166.96 279.25,-129.77 309.75,-99.56"/>
<polygon fill="#546e7a" stroke="#546e7a" stroke-width="1.6" points="311.32,-101.7 314.78,-94.55 307.62,-97.98 311.32,-101.7"/>
<text xml:space="preserve" text-anchor="middle" x="246.5" y="-176.47" font-family="Helvetica,sans-Serif" font-size="11.00">parse</text>
</g>
<!-- llm -->
<g id="node3" class="node">
<title>llm</title>
<path fill="#f3e5f5" stroke="#263238" stroke-width="1.3" d="M186.75,-78C186.75,-78 20,-78 20,-78 14,-78 8,-72 8,-66 8,-66 8,-26 8,-26 8,-20 14,-14 20,-14 20,-14 186.75,-14 186.75,-14 192.75,-14 198.75,-20 198.75,-26 198.75,-26 198.75,-66 198.75,-66 198.75,-72 192.75,-78 186.75,-78"/>
<text xml:space="preserve" text-anchor="start" x="16" y="-61.7" font-family="Helvetica,sans-Serif" font-size="14.00"> &#160;&#160;&#160;&#160;&#160;</text>
<text xml:space="preserve" text-anchor="start" x="38.5" y="-61.7" font-family="Helvetica,sans-Serif" font-weight="bold" font-size="14.00">LLM / assistant</text>
<text xml:space="preserve" text-anchor="start" x="16" y="-47.7" font-family="Helvetica,sans-Serif" font-size="14.00"> &#160;&#160;&#160;&#160;&#160;actual callable registry</text>
<text xml:space="preserve" text-anchor="start" x="16" y="-33.7" font-family="Helvetica,sans-Serif" font-size="14.00"> &#160;&#160;&#160;&#160;&#160;type signatures</text>
<text xml:space="preserve" text-anchor="start" x="16" y="-19.7" font-family="Helvetica,sans-Serif" font-size="14.00"> &#160;&#160;&#160;&#160;&#160;constrained generation &#160;&#160;&#160;</text>
</g>
<!-- llm&#45;&gt;state -->
<g id="edge3" class="edge">
<title>llm&#45;&gt;state</title>
<path fill="none" stroke="#546e7a" stroke-width="1.6" d="M199.16,-46C226.99,-46 257.09,-46 283.68,-46"/>
<polygon fill="#546e7a" stroke="#546e7a" stroke-width="1.6" points="283.39,-48.63 290.89,-46 283.39,-43.38 283.39,-48.63"/>
<text xml:space="preserve" text-anchor="middle" x="246.5" y="-49.05" font-family="Helvetica,sans-Serif" font-size="11.00">construct</text>
</g>
<!-- scope -->
<g id="node5" class="node">
<title>scope</title>
<path fill="#e8f5e9" stroke="#2e7d32" stroke-width="1.3" d="M718.75,-85C718.75,-85 549.75,-85 549.75,-85 543.75,-85 537.75,-79 537.75,-73 537.75,-73 537.75,-19 537.75,-19 537.75,-13 543.75,-7 549.75,-7 549.75,-7 718.75,-7 718.75,-7 724.75,-7 730.75,-13 730.75,-19 730.75,-19 730.75,-73 730.75,-73 730.75,-79 724.75,-85 718.75,-85"/>
<text xml:space="preserve" text-anchor="start" x="545.75" y="-68.7" font-family="Helvetica,sans-Serif" font-size="14.00"> &#160;&#160;&#160;</text>
<text xml:space="preserve" text-anchor="start" x="560.75" y="-68.7" font-family="Helvetica,sans-Serif" font-weight="bold" font-size="14.00">Resolution scopes</text>
<text xml:space="preserve" text-anchor="start" x="545.75" y="-54.7" font-family="Helvetica,sans-Serif" font-size="14.00"> &#160;&#160;&#160;global defaults</text>
<text xml:space="preserve" text-anchor="start" x="545.75" y="-40.7" font-family="Helvetica,sans-Serif" font-size="14.00"> &#160;&#160;&#160;pipeline overrides</text>
<text xml:space="preserve" text-anchor="start" x="545.75" y="-26.7" font-family="Helvetica,sans-Serif" font-size="14.00"> &#160;&#160;&#160;step overrides</text>
<text xml:space="preserve" text-anchor="start" x="545.75" y="-12.7" font-family="Helvetica,sans-Serif" font-size="14.00"> &#160;&#160;&#160;function invocation values &#160;</text>
</g>
<!-- state&#45;&gt;scope -->
<g id="edge4" class="edge">
<title>state&#45;&gt;scope</title>
<path fill="none" stroke="#546e7a" stroke-width="1.6" d="M430.4,-46C459.8,-46 494.95,-46 527.67,-46"/>
<polygon fill="#546e7a" stroke="#546e7a" stroke-width="1.6" points="527.35,-48.63 534.85,-46 527.35,-43.38 527.35,-48.63"/>
<text xml:space="preserve" text-anchor="middle" x="483.62" y="-49.05" font-family="Helvetica,sans-Serif" font-size="11.00">resolve</text>
</g>
<!-- change_audit -->
<g id="node7" class="node">
<title>change_audit</title>
<path fill="#fff3e0" stroke="#e65100" stroke-width="1.3" d="M716.5,-201C716.5,-201 552,-201 552,-201 546,-201 540,-195 540,-189 540,-189 540,-135 540,-135 540,-129 546,-123 552,-123 552,-123 716.5,-123 716.5,-123 722.5,-123 728.5,-129 728.5,-135 728.5,-135 728.5,-189 728.5,-189 728.5,-195 722.5,-201 716.5,-201"/>
<text xml:space="preserve" text-anchor="start" x="548" y="-184.7" font-family="Helvetica,sans-Serif" font-size="14.00"> &#160;&#160;&#160;</text>
<text xml:space="preserve" text-anchor="start" x="563" y="-184.7" font-family="Helvetica,sans-Serif" font-weight="bold" font-size="14.00">Inspectable change</text>
<text xml:space="preserve" text-anchor="start" x="548" y="-170.7" font-family="Helvetica,sans-Serif" font-size="14.00"> &#160;&#160;&#160;local / inherited / defaulted</text>
<text xml:space="preserve" text-anchor="start" x="548" y="-156.7" font-family="Helvetica,sans-Serif" font-size="14.00"> &#160;&#160;&#160;source of value</text>
<text xml:space="preserve" text-anchor="start" x="548" y="-142.7" font-family="Helvetica,sans-Serif" font-size="14.00"> &#160;&#160;&#160;generated code diff</text>
<text xml:space="preserve" text-anchor="start" x="568.25" y="-128.7" font-family="Helvetica,sans-Serif" font-size="14.00"> &#160;&#160;&#160;reproducible rerun &#160;</text>
</g>
<!-- state&#45;&gt;change_audit -->
<g id="edge6" class="edge">
<title>state&#45;&gt;change_audit</title>
<path fill="none" stroke="#546e7a" stroke-width="1.6" d="M430.4,-74.97C461.06,-88.12 497.97,-103.96 531.85,-118.5"/>
<polygon fill="#546e7a" stroke="#546e7a" stroke-width="1.6" points="530.7,-120.86 538.63,-121.4 532.77,-116.03 530.7,-120.86"/>
<text xml:space="preserve" text-anchor="middle" x="483.62" y="-110.53" font-family="Helvetica,sans-Serif" font-size="11.00">provenance</text>
</g>
<!-- runtime -->
<g id="node6" class="node">
<title>runtime</title>
<path fill="#e8eaf6" stroke="#283593" stroke-width="2" d="M1007.25,-78C1007.25,-78 831.5,-78 831.5,-78 825.5,-78 819.5,-72 819.5,-66 819.5,-66 819.5,-26 819.5,-26 819.5,-20 825.5,-14 831.5,-14 831.5,-14 1007.25,-14 1007.25,-14 1013.25,-14 1019.25,-20 1019.25,-26 1019.25,-26 1019.25,-66 1019.25,-66 1019.25,-72 1013.25,-78 1007.25,-78"/>
<text xml:space="preserve" text-anchor="start" x="827.5" y="-61.7" font-family="Helvetica,sans-Serif" font-size="14.00"> &#160;&#160;&#160;</text>
<text xml:space="preserve" text-anchor="start" x="842.5" y="-61.7" font-family="Helvetica,sans-Serif" font-weight="bold" font-size="14.00">Compiled runtime context</text>
<text xml:space="preserve" text-anchor="start" x="827.5" y="-47.7" font-family="Helvetica,sans-Serif" font-size="14.00"> &#160;&#160;&#160;resolved values</text>
<text xml:space="preserve" text-anchor="start" x="827.5" y="-33.7" font-family="Helvetica,sans-Serif" font-size="14.00"> &#160;&#160;&#160;function parameters</text>
<text xml:space="preserve" text-anchor="start" x="827.5" y="-19.7" font-family="Helvetica,sans-Serif" font-size="14.00"> &#160;&#160;&#160;worker&#45;safe execution plan &#160;</text>
</g>
<!-- scope&#45;&gt;runtime -->
<g id="edge5" class="edge">
<title>scope&#45;&gt;runtime</title>
<path fill="none" stroke="#546e7a" stroke-width="1.6" d="M731.1,-46C756.14,-46 783.31,-46 808.99,-46"/>
<polygon fill="#546e7a" stroke="#546e7a" stroke-width="1.6" points="808.83,-48.63 816.33,-46 808.83,-43.38 808.83,-48.63"/>
<text xml:space="preserve" text-anchor="middle" x="775.12" y="-49.05" font-family="Helvetica,sans-Serif" font-size="11.00">compile</text>
</g>
<!-- change_audit&#45;&gt;gui -->
<g id="edge7" class="edge">
<title>change_audit&#45;&gt;gui</title>
<path fill="none" stroke="#546e7a" stroke-width="1.6" d="M539.66,-158.99C442.18,-155.86 290.54,-150.98 194.4,-147.89"/>
<polygon fill="#546e7a" stroke="#546e7a" stroke-width="1.6" points="194.7,-145.28 187.12,-147.66 194.53,-150.52 194.7,-145.28"/>
<text xml:space="preserve" text-anchor="middle" x="361.88" y="-158.24" font-family="Helvetica,sans-Serif" font-size="11.00">display</text>
</g>
<!-- change_audit&#45;&gt;code -->
<g id="edge8" class="edge">
<title>change_audit&#45;&gt;code</title>
<path fill="none" stroke="#546e7a" stroke-width="1.6" d="M539.43,-178.43C530.08,-180.01 520.73,-181.55 511.75,-183 408.69,-199.62 290.71,-217.12 208.34,-229.09"/>
<polygon fill="#546e7a" stroke="#546e7a" stroke-width="1.6" points="208.16,-226.46 201.12,-230.14 208.92,-231.66 208.16,-226.46"/>
<text xml:space="preserve" text-anchor="middle" x="361.88" y="-219.25" font-family="Helvetica,sans-Serif" font-size="11.00">serialize</text>
</g>
</g>
</svg>
