<?xml version="1.0" encoding="UTF-8" standalone="no"?>
<!DOCTYPE svg PUBLIC "-//W3C//DTD SVG 1.1//EN"
 "http://www.w3.org/Graphics/SVG/1.1/DTD/svg11.dtd">
<!-- Generated by graphviz version 14.1.5 (0)
 -->
<!-- Title: G Pages: 1 -->
<svg width="759pt" height="629pt"
 viewBox="9.00 9.00 750.00 620.00" xmlns="http://www.w3.org/2000/svg" xmlns:xlink="http://www.w3.org/1999/xlink">
<g id="graph0" class="graph" transform="scale(1 1) rotate(0) translate(21.6 607.35)">
<title>G</title>
<polygon fill="white" stroke="none" points="-12.96,12.96 -12.96,-598.71 728.71,-598.71 728.71,12.96 -12.96,12.96"/>
<text xml:space="preserve" text-anchor="start" x="8" y="-563.75" font-family="Helvetica,sans-Serif" font-size="20.00"> &#160;&#160;&#160;</text>
<text xml:space="preserve" text-anchor="start" x="29" y="-563.75" font-family="Helvetica,sans-Serif" font-weight="bold" font-size="20.00">Figure 4. Benchmark structure separates parity, speed, and throughput</text>
<text xml:space="preserve" text-anchor="start" x="697.25" y="-563.75" font-family="Helvetica,sans-Serif" font-size="20.00"> &#160;</text>
<!-- manifest -->
<g id="node1" class="node">
<title>manifest</title>
<path fill="#e3f2fd" stroke="#1565c0" stroke-width="1.3" d="M455.5,-554.5C455.5,-554.5 314.25,-554.5 314.25,-554.5 308.25,-554.5 302.25,-548.5 302.25,-542.5 302.25,-542.5 302.25,-474.5 302.25,-474.5 302.25,-468.5 308.25,-462.5 314.25,-462.5 314.25,-462.5 455.5,-462.5 455.5,-462.5 461.5,-462.5 467.5,-468.5 467.5,-474.5 467.5,-474.5 467.5,-542.5 467.5,-542.5 467.5,-548.5 461.5,-554.5 455.5,-554.5"/>
<text xml:space="preserve" text-anchor="start" x="310.25" y="-538.2" font-family="Helvetica,sans-Serif" font-size="14.00"> &#160;&#160;&#160;</text>
<text xml:space="preserve" text-anchor="start" x="325.25" y="-538.2" font-family="Helvetica,sans-Serif" font-weight="bold" font-size="14.00">Benchmark manifest</text>
<text xml:space="preserve" text-anchor="start" x="310.25" y="-524.2" font-family="Helvetica,sans-Serif" font-size="14.00"> &#160;&#160;&#160;.cppipe path</text>
<text xml:space="preserve" text-anchor="start" x="310.25" y="-510.2" font-family="Helvetica,sans-Serif" font-size="14.00"> &#160;&#160;&#160;dataset source</text>
<text xml:space="preserve" text-anchor="start" x="310.25" y="-496.2" font-family="Helvetica,sans-Serif" font-size="14.00"> &#160;&#160;&#160;source category</text>
<text xml:space="preserve" text-anchor="start" x="310.25" y="-482.2" font-family="Helvetica,sans-Serif" font-size="14.00"> &#160;&#160;&#160;assay family</text>
<text xml:space="preserve" text-anchor="start" x="318.12" y="-468.2" font-family="Helvetica,sans-Serif" font-size="14.00"> &#160;&#160;&#160;semantic pressure &#160;</text>
</g>
<!-- cp_run -->
<g id="node2" class="node">
<title>cp_run</title>
<path fill="#fff3e0" stroke="#e65100" stroke-width="1.3" d="M235.62,-413C235.62,-413 110.12,-413 110.12,-413 104.12,-413 98.12,-407 98.12,-401 98.12,-401 98.12,-347 98.12,-347 98.12,-341 104.12,-335 110.12,-335 110.12,-335 235.62,-335 235.62,-335 241.62,-335 247.62,-341 247.62,-347 247.62,-347 247.62,-401 247.62,-401 247.62,-407 241.62,-413 235.62,-413"/>
<text xml:space="preserve" text-anchor="start" x="106.12" y="-396.7" font-family="Helvetica,sans-Serif" font-size="14.00"> &#160;&#160;&#160;</text>
<text xml:space="preserve" text-anchor="start" x="121.12" y="-396.7" font-family="Helvetica,sans-Serif" font-weight="bold" font-size="14.00">Native CellProfiler</text>
<text xml:space="preserve" text-anchor="start" x="106.12" y="-382.7" font-family="Helvetica,sans-Serif" font-size="14.00"> &#160;&#160;&#160;reference execution</text>
<text xml:space="preserve" text-anchor="start" x="106.12" y="-368.7" font-family="Helvetica,sans-Serif" font-size="14.00"> &#160;&#160;&#160;output tables</text>
<text xml:space="preserve" text-anchor="start" x="106.12" y="-354.7" font-family="Helvetica,sans-Serif" font-size="14.00"> &#160;&#160;&#160;labels / images</text>
<text xml:space="preserve" text-anchor="start" x="111" y="-340.7" font-family="Helvetica,sans-Serif" font-size="14.00"> &#160;&#160;&#160;materialized files &#160;</text>
</g>
<!-- manifest&#45;&gt;cp_run -->
<g id="edge1" class="edge">
<title>manifest&#45;&gt;cp_run</title>
<path fill="none" stroke="#546e7a" stroke-width="1.6" d="M311.92,-461.9C289.61,-447.96 265.14,-432.67 243.03,-418.85"/>
<polygon fill="#546e7a" stroke="#546e7a" stroke-width="1.6" points="244.48,-416.66 236.73,-414.91 241.7,-421.11 244.48,-416.66"/>
<text xml:space="preserve" text-anchor="middle" x="301.75" y="-434.05" font-family="Helvetica,sans-Serif" font-size="11.00">reference</text>
</g>
<!-- oh_run -->
<g id="node3" class="node">
<title>oh_run</title>
<path fill="#e0f2f1" stroke="#00796b" stroke-width="1.3" d="M462.25,-413C462.25,-413 307.5,-413 307.5,-413 301.5,-413 295.5,-407 295.5,-401 295.5,-401 295.5,-347 295.5,-347 295.5,-341 301.5,-335 307.5,-335 307.5,-335 462.25,-335 462.25,-335 468.25,-335 474.25,-341 474.25,-347 474.25,-347 474.25,-401 474.25,-401 474.25,-407 468.25,-413 462.25,-413"/>
<text xml:space="preserve" text-anchor="start" x="303.5" y="-396.7" font-family="Helvetica,sans-Serif" font-size="14.00"> &#160;&#160;&#160;</text>
<text xml:space="preserve" text-anchor="start" x="318.5" y="-396.7" font-family="Helvetica,sans-Serif" font-weight="bold" font-size="14.00">OpenHCS import + run</text>
<text xml:space="preserve" text-anchor="start" x="303.5" y="-382.7" font-family="Helvetica,sans-Serif" font-size="14.00"> &#160;&#160;&#160;same .cppipe</text>
<text xml:space="preserve" text-anchor="start" x="303.5" y="-368.7" font-family="Helvetica,sans-Serif" font-size="14.00"> &#160;&#160;&#160;same dataset</text>
<text xml:space="preserve" text-anchor="start" x="303.5" y="-354.7" font-family="Helvetica,sans-Serif" font-size="14.00"> &#160;&#160;&#160;compiled artifacts</text>
<text xml:space="preserve" text-anchor="start" x="318.12" y="-340.7" font-family="Helvetica,sans-Serif" font-size="14.00"> &#160;&#160;&#160;one&#45;core condition &#160;</text>
</g>
<!-- manifest&#45;&gt;oh_run -->
<g id="edge2" class="edge">
<title>manifest&#45;&gt;oh_run</title>
<path fill="none" stroke="#546e7a" stroke-width="1.6" d="M384.88,-461.9C384.88,-449.5 384.88,-436.02 384.88,-423.46"/>
<polygon fill="#546e7a" stroke="#546e7a" stroke-width="1.6" points="387.5,-423.55 384.88,-416.05 382.25,-423.55 387.5,-423.55"/>
<text xml:space="preserve" text-anchor="middle" x="399.88" y="-434.05" font-family="Helvetica,sans-Serif" font-size="11.00">import</text>
</g>
<!-- throughput -->
<g id="node7" class="node">
<title>throughput</title>
<path fill="#fffde7" stroke="#f9a825" stroke-width="1.3" d="M605.62,-317C605.62,-317 480.12,-317 480.12,-317 474.12,-317 468.12,-311 468.12,-305 468.12,-305 468.12,-251 468.12,-251 468.12,-245 474.12,-239 480.12,-239 480.12,-239 605.62,-239 605.62,-239 611.62,-239 617.62,-245 617.62,-251 617.62,-251 617.62,-305 617.62,-305 617.62,-311 611.62,-317 605.62,-317"/>
<text xml:space="preserve" text-anchor="start" x="476.12" y="-300.7" font-family="Helvetica,sans-Serif" font-size="14.00"> &#160;&#160;&#160;</text>
<text xml:space="preserve" text-anchor="start" x="491.12" y="-300.7" font-family="Helvetica,sans-Serif" font-weight="bold" font-size="14.00">Throughput layer</text>
<text xml:space="preserve" text-anchor="start" x="476.12" y="-286.7" font-family="Helvetica,sans-Serif" font-size="14.00"> &#160;&#160;&#160;many wells</text>
<text xml:space="preserve" text-anchor="start" x="476.12" y="-272.7" font-family="Helvetica,sans-Serif" font-size="14.00"> &#160;&#160;&#160;persistent workers</text>
<text xml:space="preserve" text-anchor="start" x="476.12" y="-258.7" font-family="Helvetica,sans-Serif" font-size="14.00"> &#160;&#160;&#160;samples per worker</text>
<text xml:space="preserve" text-anchor="start" x="482.5" y="-244.7" font-family="Helvetica,sans-Serif" font-size="14.00"> &#160;&#160;&#160;RAM per worker &#160;</text>
</g>
<!-- manifest&#45;&gt;throughput -->
<g id="edge8" class="edge">
<title>manifest&#45;&gt;throughput</title>
<path fill="none" stroke="#546e7a" stroke-width="1.6" d="M446.6,-461.99C462.94,-447.7 479.46,-430.93 491.88,-413 509.94,-386.91 522.65,-353.58 530.87,-326.69"/>
<polygon fill="#546e7a" stroke="#546e7a" stroke-width="1.6" points="533.3,-327.72 532.91,-319.79 528.27,-326.24 533.3,-327.72"/>
</g>
<!-- parity -->
<g id="node4" class="node">
<title>parity</title>
<path fill="#e8eaf6" stroke="#283593" stroke-width="2" d="M304,-221C304,-221 171.75,-221 171.75,-221 165.75,-221 159.75,-215 159.75,-209 159.75,-209 159.75,-141 159.75,-141 159.75,-135 165.75,-129 171.75,-129 171.75,-129 304,-129 304,-129 310,-129 316,-135 316,-141 316,-141 316,-209 316,-209 316,-215 310,-221 304,-221"/>
<text xml:space="preserve" text-anchor="start" x="167.75" y="-204.7" font-family="Helvetica,sans-Serif" font-size="14.00"> &#160;&#160;&#160;</text>
<text xml:space="preserve" text-anchor="start" x="182.75" y="-204.7" font-family="Helvetica,sans-Serif" font-weight="bold" font-size="14.00">Semantic parity</text>
<text xml:space="preserve" text-anchor="start" x="167.75" y="-190.7" font-family="Helvetica,sans-Serif" font-size="14.00"> &#160;&#160;&#160;measurements</text>
<text xml:space="preserve" text-anchor="start" x="167.75" y="-176.7" font-family="Helvetica,sans-Serif" font-size="14.00"> &#160;&#160;&#160;labels / objects</text>
<text xml:space="preserve" text-anchor="start" x="167.75" y="-162.7" font-family="Helvetica,sans-Serif" font-size="14.00"> &#160;&#160;&#160;image values</text>
<text xml:space="preserve" text-anchor="start" x="167.75" y="-148.7" font-family="Helvetica,sans-Serif" font-size="14.00"> &#160;&#160;&#160;relationships</text>
<text xml:space="preserve" text-anchor="start" x="167.75" y="-134.7" font-family="Helvetica,sans-Serif" font-size="14.00"> &#160;&#160;&#160;declared tolerances &#160;</text>
</g>
<!-- cp_run&#45;&gt;parity -->
<g id="edge3" class="edge">
<title>cp_run&#45;&gt;parity</title>
<path fill="none" stroke="#546e7a" stroke-width="1.6" d="M152.22,-334.39C140.31,-306.51 130.49,-268.7 146.12,-239 148.05,-235.35 150.29,-231.86 152.79,-228.55"/>
<polygon fill="#546e7a" stroke="#546e7a" stroke-width="1.6" points="154.66,-230.4 157.47,-222.97 150.64,-227.02 154.66,-230.4"/>
<text xml:space="preserve" text-anchor="middle" x="187" y="-274.3" font-family="Helvetica,sans-Serif" font-size="11.00">expected outputs</text>
</g>
<!-- oh_run&#45;&gt;parity -->
<g id="edge4" class="edge">
<title>oh_run&#45;&gt;parity</title>
<path fill="none" stroke="#546e7a" stroke-width="1.6" d="M306.7,-334.5C299.97,-329.23 293.71,-323.4 288.38,-317 268.04,-292.59 255.61,-259.36 248.18,-231.29"/>
<polygon fill="#546e7a" stroke="#546e7a" stroke-width="1.6" points="250.81,-230.97 246.43,-224.34 245.71,-232.25 250.81,-230.97"/>
<text xml:space="preserve" text-anchor="middle" x="329.62" y="-274.3" font-family="Helvetica,sans-Serif" font-size="11.00">observed outputs</text>
</g>
<!-- timing -->
<g id="node5" class="node">
<title>timing</title>
<path fill="#f3e5f5" stroke="#6a1b9a" stroke-width="1.3" d="M447.62,-221C447.62,-221 364.12,-221 364.12,-221 358.12,-221 352.12,-215 352.12,-209 352.12,-209 352.12,-141 352.12,-141 352.12,-135 358.12,-129 364.12,-129 364.12,-129 447.62,-129 447.62,-129 453.62,-129 459.62,-135 459.62,-141 459.62,-141 459.62,-209 459.62,-209 459.62,-215 453.62,-221 447.62,-221"/>
<text xml:space="preserve" text-anchor="start" x="360.12" y="-204.7" font-family="Helvetica,sans-Serif" font-size="14.00"> &#160;&#160;&#160;</text>
<text xml:space="preserve" text-anchor="start" x="375.12" y="-204.7" font-family="Helvetica,sans-Serif" font-weight="bold" font-size="14.00">Timing split</text>
<text xml:space="preserve" text-anchor="start" x="360.12" y="-190.7" font-family="Helvetica,sans-Serif" font-size="14.00"> &#160;&#160;&#160;startup</text>
<text xml:space="preserve" text-anchor="start" x="360.12" y="-176.7" font-family="Helvetica,sans-Serif" font-size="14.00"> &#160;&#160;&#160;compile</text>
<text xml:space="preserve" text-anchor="start" x="360.12" y="-162.7" font-family="Helvetica,sans-Serif" font-size="14.00"> &#160;&#160;&#160;warmup</text>
<text xml:space="preserve" text-anchor="start" x="360.12" y="-148.7" font-family="Helvetica,sans-Serif" font-size="14.00"> &#160;&#160;&#160;execution</text>
<text xml:space="preserve" text-anchor="start" x="375.88" y="-134.7" font-family="Helvetica,sans-Serif" font-size="14.00"> &#160;&#160;&#160;output &#160;</text>
</g>
<!-- oh_run&#45;&gt;timing -->
<g id="edge5" class="edge">
<title>oh_run&#45;&gt;timing</title>
<path fill="none" stroke="#546e7a" stroke-width="1.6" d="M381.05,-334.59C379.23,-307.65 378.47,-270.88 383.88,-239 384.31,-236.41 384.85,-233.79 385.46,-231.16"/>
<polygon fill="#546e7a" stroke="#546e7a" stroke-width="1.6" points="387.97,-231.9 387.33,-223.98 382.9,-230.57 387.97,-231.9"/>
<text xml:space="preserve" text-anchor="middle" x="416.88" y="-274.3" font-family="Helvetica,sans-Serif" font-size="11.00">phase timings</text>
</g>
<!-- report -->
<g id="node6" class="node">
<title>report</title>
<path fill="#e8f5e9" stroke="#2e7d32" stroke-width="2" d="M474.62,-92C474.62,-92 337.12,-92 337.12,-92 331.12,-92 325.12,-86 325.12,-80 325.12,-80 325.12,-12 325.12,-12 325.12,-6 331.12,0 337.12,0 337.12,0 474.62,0 474.62,0 480.62,0 486.62,-6 486.62,-12 486.62,-12 486.62,-80 486.62,-80 486.62,-86 480.62,-92 474.62,-92"/>
<text xml:space="preserve" text-anchor="start" x="333.12" y="-75.7" font-family="Helvetica,sans-Serif" font-size="14.00"> &#160;&#160;&#160;</text>
<text xml:space="preserve" text-anchor="start" x="348.12" y="-75.7" font-family="Helvetica,sans-Serif" font-weight="bold" font-size="14.00">Benchmark report</text>
<text xml:space="preserve" text-anchor="start" x="333.12" y="-61.7" font-family="Helvetica,sans-Serif" font-size="14.00"> &#160;&#160;&#160;pass / fail parity</text>
<text xml:space="preserve" text-anchor="start" x="333.12" y="-47.7" font-family="Helvetica,sans-Serif" font-size="14.00"> &#160;&#160;&#160;raw seconds</text>
<text xml:space="preserve" text-anchor="start" x="333.12" y="-33.7" font-family="Helvetica,sans-Serif" font-size="14.00"> &#160;&#160;&#160;speedup vs CP</text>
<text xml:space="preserve" text-anchor="start" x="333.12" y="-19.7" font-family="Helvetica,sans-Serif" font-size="14.00"> &#160;&#160;&#160;RAM</text>
<text xml:space="preserve" text-anchor="start" x="333.12" y="-5.7" font-family="Helvetica,sans-Serif" font-size="14.00"> &#160;&#160;&#160;category summaries &#160;</text>
</g>
<!-- parity&#45;&gt;report -->
<g id="edge6" class="edge">
<title>parity&#45;&gt;report</title>
<path fill="none" stroke="#546e7a" stroke-width="1.6" d="M298.53,-128.15C311.06,-118.68 324.34,-108.63 337.14,-98.96"/>
<polygon fill="#546e7a" stroke="#546e7a" stroke-width="1.6" points="338.7,-101.07 343.1,-94.46 335.53,-96.88 338.7,-101.07"/>
</g>
<!-- timing&#45;&gt;report -->
<g id="edge7" class="edge">
<title>timing&#45;&gt;report</title>
<path fill="none" stroke="#546e7a" stroke-width="1.6" d="M405.88,-128.51C405.88,-120.03 405.88,-111.08 405.88,-102.34"/>
<polygon fill="#546e7a" stroke="#546e7a" stroke-width="1.6" points="408.5,-102.52 405.88,-95.02 403.25,-102.52 408.5,-102.52"/>
</g>
<!-- throughput&#45;&gt;report -->
<g id="edge9" class="edge">
<title>throughput&#45;&gt;report</title>
<path fill="none" stroke="#546e7a" stroke-width="1.6" d="M529.73,-238.59C518.3,-207.73 500.11,-163.91 477.88,-129 471.61,-119.17 464.2,-109.32 456.55,-100.04"/>
<polygon fill="#546e7a" stroke="#546e7a" stroke-width="1.6" points="458.78,-98.62 451.94,-94.58 454.77,-102 458.78,-98.62"/>
</g>
</g>
</svg>
