<?xml version="1.0" encoding="UTF-8" standalone="no"?>
<!DOCTYPE svg PUBLIC "-//W3C//DTD SVG 1.1//EN"
 "http://www.w3.org/Graphics/SVG/1.1/DTD/svg11.dtd">
<!-- Generated by graphviz version 14.1.5 (0)
 -->
<!-- Title: G Pages: 1 -->
<svg width="1085pt" height="737pt"
 viewBox="9.00 9.00 1077.00 729.00" xmlns="http://www.w3.org/2000/svg" xmlns:xlink="http://www.w3.org/1999/xlink">
<g id="graph0" class="graph" transform="scale(1 1) rotate(0) translate(21.6 715.6)">
<title>G</title>
<polygon fill="white" stroke="none" points="-12.96,12.96 -12.96,-706.96 1054.96,-706.96 1054.96,12.96 -12.96,12.96"/>
<text xml:space="preserve" text-anchor="start" x="243.88" y="-672" font-family="Helvetica,sans-Serif" font-size="20.00"> &#160;&#160;&#160;</text>
<text xml:space="preserve" text-anchor="start" x="264.88" y="-672" font-family="Helvetica,sans-Serif" font-weight="bold" font-size="20.00">Figure 6. Backend acceleration is selected by contracts</text>
<text xml:space="preserve" text-anchor="start" x="787.62" y="-672" font-family="Helvetica,sans-Serif" font-size="20.00"> &#160;</text>
<g id="clust1" class="cluster">
<title>cluster_backends</title>
<path fill="#f7fafc" stroke="none" stroke-width="0" d="M20,-236.5C20,-236.5 1022,-236.5 1022,-236.5 1028,-236.5 1034,-242.5 1034,-248.5 1034,-248.5 1034,-291.75 1034,-291.75 1034,-297.75 1028,-303.75 1022,-303.75 1022,-303.75 20,-303.75 20,-303.75 14,-303.75 8,-297.75 8,-291.75 8,-291.75 8,-248.5 8,-248.5 8,-242.5 14,-236.5 20,-236.5"/>
<text xml:space="preserve" text-anchor="middle" x="521" y="-280.75" font-family="Helvetica,sans-Serif" font-size="20.00">Backend variants</text>
</g>
<!-- workflow -->
<g id="node1" class="node">
<title>workflow</title>
<path fill="#e3f2fd" stroke="#1565c0" stroke-width="2" d="M600.88,-662.75C600.88,-662.75 449.12,-662.75 449.12,-662.75 443.12,-662.75 437.12,-656.75 437.12,-650.75 437.12,-650.75 437.12,-596.75 437.12,-596.75 437.12,-590.75 443.12,-584.75 449.12,-584.75 449.12,-584.75 600.88,-584.75 600.88,-584.75 606.88,-584.75 612.88,-590.75 612.88,-596.75 612.88,-596.75 612.88,-650.75 612.88,-650.75 612.88,-656.75 606.88,-662.75 600.88,-662.75"/>
<text xml:space="preserve" text-anchor="start" x="445.12" y="-646.45" font-family="Helvetica,sans-Serif" font-size="14.00"> &#160;&#160;&#160;</text>
<text xml:space="preserve" text-anchor="start" x="460.12" y="-646.45" font-family="Helvetica,sans-Serif" font-weight="bold" font-size="14.00">Workflow semantics</text>
<text xml:space="preserve" text-anchor="start" x="445.12" y="-632.45" font-family="Helvetica,sans-Serif" font-size="14.00"> &#160;&#160;&#160;source schema</text>
<text xml:space="preserve" text-anchor="start" x="445.12" y="-618.45" font-family="Helvetica,sans-Serif" font-size="14.00"> &#160;&#160;&#160;dimensions</text>
<text xml:space="preserve" text-anchor="start" x="445.12" y="-604.45" font-family="Helvetica,sans-Serif" font-size="14.00"> &#160;&#160;&#160;objects / measurements</text>
<text xml:space="preserve" text-anchor="start" x="453" y="-590.45" font-family="Helvetica,sans-Serif" font-size="14.00"> &#160;&#160;&#160;materialized outputs &#160;</text>
</g>
<!-- contract -->
<g id="node2" class="node">
<title>contract</title>
<path fill="#fff8e1" stroke="#f9a825" stroke-width="1.3" d="M614.38,-543.75C614.38,-543.75 435.62,-543.75 435.62,-543.75 429.62,-543.75 423.62,-537.75 423.62,-531.75 423.62,-531.75 423.62,-463.75 423.62,-463.75 423.62,-457.75 429.62,-451.75 435.62,-451.75 435.62,-451.75 614.38,-451.75 614.38,-451.75 620.38,-451.75 626.38,-457.75 626.38,-463.75 626.38,-463.75 626.38,-531.75 626.38,-531.75 626.38,-537.75 620.38,-543.75 614.38,-543.75"/>
<text xml:space="preserve" text-anchor="start" x="431.62" y="-527.45" font-family="Helvetica,sans-Serif" font-size="14.00"> &#160;&#160;&#160;</text>
<text xml:space="preserve" text-anchor="start" x="446.62" y="-527.45" font-family="Helvetica,sans-Serif" font-weight="bold" font-size="14.00">Function memory contract</text>
<text xml:space="preserve" text-anchor="start" x="431.62" y="-513.45" font-family="Helvetica,sans-Serif" font-size="14.00"> &#160;&#160;&#160;@numpy</text>
<text xml:space="preserve" text-anchor="start" x="431.62" y="-499.45" font-family="Helvetica,sans-Serif" font-size="14.00"> &#160;&#160;&#160;@cupy</text>
<text xml:space="preserve" text-anchor="start" x="431.62" y="-485.45" font-family="Helvetica,sans-Serif" font-size="14.00"> &#160;&#160;&#160;@jax</text>
<text xml:space="preserve" text-anchor="start" x="431.62" y="-471.45" font-family="Helvetica,sans-Serif" font-size="14.00"> &#160;&#160;&#160;@torch / @tensorflow</text>
<text xml:space="preserve" text-anchor="start" x="464.62" y="-457.45" font-family="Helvetica,sans-Serif" font-size="14.00"> &#160;&#160;&#160;@pyclesperanto &#160;</text>
</g>
<!-- workflow&#45;&gt;contract -->
<g id="edge1" class="edge">
<title>workflow&#45;&gt;contract</title>
<path fill="none" stroke="#546e7a" stroke-width="1.6" d="M525,-583.86C525,-574.28 525,-563.84 525,-553.65"/>
<polygon fill="#546e7a" stroke="#546e7a" stroke-width="1.6" points="527.63,-553.93 525,-546.43 522.38,-553.93 527.63,-553.93"/>
</g>
<!-- compiler -->
<g id="node3" class="node">
<title>compiler</title>
<path fill="#e0f2f1" stroke="#00796b" stroke-width="2" d="M609.88,-410.75C609.88,-410.75 440.12,-410.75 440.12,-410.75 434.12,-410.75 428.12,-404.75 428.12,-398.75 428.12,-398.75 428.12,-344.75 428.12,-344.75 428.12,-338.75 434.12,-332.75 440.12,-332.75 440.12,-332.75 609.88,-332.75 609.88,-332.75 615.88,-332.75 621.88,-338.75 621.88,-344.75 621.88,-344.75 621.88,-398.75 621.88,-398.75 621.88,-404.75 615.88,-410.75 609.88,-410.75"/>
<text xml:space="preserve" text-anchor="start" x="436.12" y="-394.45" font-family="Helvetica,sans-Serif" font-size="14.00"> &#160;&#160;&#160;</text>
<text xml:space="preserve" text-anchor="start" x="451.12" y="-394.45" font-family="Helvetica,sans-Serif" font-weight="bold" font-size="14.00">Compiler selection</text>
<text xml:space="preserve" text-anchor="start" x="436.12" y="-380.45" font-family="Helvetica,sans-Serif" font-size="14.00"> &#160;&#160;&#160;validate semantics</text>
<text xml:space="preserve" text-anchor="start" x="436.12" y="-366.45" font-family="Helvetica,sans-Serif" font-size="14.00"> &#160;&#160;&#160;choose compatible callable</text>
<text xml:space="preserve" text-anchor="start" x="436.12" y="-352.45" font-family="Helvetica,sans-Serif" font-size="14.00"> &#160;&#160;&#160;preserve artifact contract</text>
<text xml:space="preserve" text-anchor="start" x="444.38" y="-338.45" font-family="Helvetica,sans-Serif" font-size="14.00"> &#160;&#160;&#160;prepare warmup hooks &#160;</text>
</g>
<!-- contract&#45;&gt;compiler -->
<g id="edge2" class="edge">
<title>contract&#45;&gt;compiler</title>
<path fill="none" stroke="#546e7a" stroke-width="1.6" d="M525,-451.28C525,-441.54 525,-431.2 525,-421.34"/>
<polygon fill="#546e7a" stroke="#546e7a" stroke-width="1.6" points="527.63,-421.6 525,-414.1 522.38,-421.6 527.63,-421.6"/>
</g>
<!-- numpy -->
<g id="node4" class="node">
<title>numpy</title>
<path fill="#e8f5e9" stroke="#263238" stroke-width="1.3" d="M159.5,-272.5C159.5,-272.5 20.5,-272.5 20.5,-272.5 14.5,-272.5 8.5,-266.5 8.5,-260.5 8.5,-260.5 8.5,-248.5 8.5,-248.5 8.5,-242.5 14.5,-236.5 20.5,-236.5 20.5,-236.5 159.5,-236.5 159.5,-236.5 165.5,-236.5 171.5,-242.5 171.5,-248.5 171.5,-248.5 171.5,-260.5 171.5,-260.5 171.5,-266.5 165.5,-272.5 159.5,-272.5"/>
<text xml:space="preserve" text-anchor="start" x="26.25" y="-256.2" font-family="Helvetica,sans-Serif" font-size="14.00"> &#160;&#160;&#160;&#160;&#160;</text>
<text xml:space="preserve" text-anchor="start" x="48.75" y="-256.2" font-family="Helvetica,sans-Serif" font-weight="bold" font-size="14.00">NumPy / Numba</text>
<text xml:space="preserve" text-anchor="start" x="16.5" y="-242.2" font-family="Helvetica,sans-Serif" font-size="14.00"> &#160;&#160;&#160;&#160;&#160;CPU parity default &#160;&#160;&#160;</text>
</g>
<!-- compiler&#45;&gt;numpy -->
<g id="edge3" class="edge">
<title>compiler&#45;&gt;numpy</title>
<path fill="none" stroke="#546e7a" stroke-width="1.6" d="M427.42,-358.43C358.92,-348.1 265.84,-330.64 187,-303.75 167.14,-296.98 146.17,-286.95 128.83,-277.78"/>
<polygon fill="#546e7a" stroke="#546e7a" stroke-width="1.6" points="130.1,-275.48 122.25,-274.24 127.61,-280.1 130.1,-275.48"/>
</g>
<!-- cupy -->
<g id="node5" class="node">
<title>cupy</title>
<path fill="#f3e5f5" stroke="#263238" stroke-width="1.3" d="M384.88,-272.5C384.88,-272.5 215.12,-272.5 215.12,-272.5 209.12,-272.5 203.12,-266.5 203.12,-260.5 203.12,-260.5 203.12,-248.5 203.12,-248.5 203.12,-242.5 209.12,-236.5 215.12,-236.5 215.12,-236.5 384.88,-236.5 384.88,-236.5 390.88,-236.5 396.88,-242.5 396.88,-248.5 396.88,-248.5 396.88,-260.5 396.88,-260.5 396.88,-266.5 390.88,-272.5 384.88,-272.5"/>
<text xml:space="preserve" text-anchor="start" x="244.12" y="-256.2" font-family="Helvetica,sans-Serif" font-size="14.00"> &#160;&#160;&#160;&#160;&#160;</text>
<text xml:space="preserve" text-anchor="start" x="266.62" y="-256.2" font-family="Helvetica,sans-Serif" font-weight="bold" font-size="14.00">CuPy / CuCIM</text>
<text xml:space="preserve" text-anchor="start" x="211.12" y="-242.2" font-family="Helvetica,sans-Serif" font-size="14.00"> &#160;&#160;&#160;&#160;&#160;NumPy&#45;like GPU paths &#160;&#160;&#160;</text>
</g>
<!-- compiler&#45;&gt;cupy -->
<g id="edge4" class="edge">
<title>compiler&#45;&gt;cupy</title>
<path fill="none" stroke="#546e7a" stroke-width="1.6" d="M449.14,-331.89C413.72,-313.75 372.87,-292.83 342.89,-277.47"/>
<polygon fill="#546e7a" stroke="#546e7a" stroke-width="1.6" points="344.37,-275.28 336.5,-274.19 341.97,-279.95 344.37,-275.28"/>
</g>
<!-- cle -->
<g id="node6" class="node">
<title>cle</title>
<path fill="#fff3e0" stroke="#263238" stroke-width="1.3" d="M609.5,-272.5C609.5,-272.5 440.5,-272.5 440.5,-272.5 434.5,-272.5 428.5,-266.5 428.5,-260.5 428.5,-260.5 428.5,-248.5 428.5,-248.5 428.5,-242.5 434.5,-236.5 440.5,-236.5 440.5,-236.5 609.5,-236.5 609.5,-236.5 615.5,-236.5 621.5,-242.5 621.5,-248.5 621.5,-248.5 621.5,-260.5 621.5,-260.5 621.5,-266.5 615.5,-272.5 609.5,-272.5"/>
<text xml:space="preserve" text-anchor="start" x="468" y="-256.2" font-family="Helvetica,sans-Serif" font-size="14.00"> &#160;&#160;&#160;&#160;&#160;</text>
<text xml:space="preserve" text-anchor="start" x="490.5" y="-256.2" font-family="Helvetica,sans-Serif" font-weight="bold" font-size="14.00">pyclesperanto</text>
<text xml:space="preserve" text-anchor="start" x="436.5" y="-242.2" font-family="Helvetica,sans-Serif" font-size="14.00"> &#160;&#160;&#160;&#160;&#160;OpenCL image kernels &#160;&#160;&#160;</text>
</g>
<!-- compiler&#45;&gt;cle -->
<g id="edge5" class="edge">
<title>compiler&#45;&gt;cle</title>
<path fill="none" stroke="#546e7a" stroke-width="1.6" d="M525,-332.05C525,-315.79 525,-297.27 525,-282.52"/>
<polygon fill="#546e7a" stroke="#546e7a" stroke-width="1.6" points="527.63,-282.91 525,-275.41 522.38,-282.91 527.63,-282.91"/>
</g>
<!-- jax -->
<g id="node7" class="node">
<title>jax</title>
<path fill="#e8eaf6" stroke="#263238" stroke-width="1.3" d="M810.12,-272.5C810.12,-272.5 665.88,-272.5 665.88,-272.5 659.88,-272.5 653.88,-266.5 653.88,-260.5 653.88,-260.5 653.88,-248.5 653.88,-248.5 653.88,-242.5 659.88,-236.5 665.88,-236.5 665.88,-236.5 810.12,-236.5 810.12,-236.5 816.12,-236.5 822.12,-242.5 822.12,-248.5 822.12,-248.5 822.12,-260.5 822.12,-260.5 822.12,-266.5 816.12,-272.5 810.12,-272.5"/>
<text xml:space="preserve" text-anchor="start" x="713.62" y="-256.2" font-family="Helvetica,sans-Serif" font-size="14.00"> &#160;&#160;&#160;&#160;&#160;</text>
<text xml:space="preserve" text-anchor="start" x="736.12" y="-256.2" font-family="Helvetica,sans-Serif" font-weight="bold" font-size="14.00">JAX</text>
<text xml:space="preserve" text-anchor="start" x="661.88" y="-242.2" font-family="Helvetica,sans-Serif" font-size="14.00"> &#160;&#160;&#160;&#160;&#160;dense pure kernels &#160;&#160;&#160;</text>
</g>
<!-- compiler&#45;&gt;jax -->
<g id="edge6" class="edge">
<title>compiler&#45;&gt;jax</title>
<path fill="none" stroke="#546e7a" stroke-width="1.6" d="M596.82,-331.89C630.2,-313.83 668.68,-293.01 697.03,-277.67"/>
<polygon fill="#546e7a" stroke="#546e7a" stroke-width="1.6" points="698.01,-280.12 703.36,-274.24 695.52,-275.5 698.01,-280.12"/>
</g>
<!-- dl -->
<g id="node8" class="node">
<title>dl</title>
<path fill="#fce4ec" stroke="#263238" stroke-width="1.3" d="M1022.12,-272.5C1022.12,-272.5 865.88,-272.5 865.88,-272.5 859.88,-272.5 853.88,-266.5 853.88,-260.5 853.88,-260.5 853.88,-248.5 853.88,-248.5 853.88,-242.5 859.88,-236.5 865.88,-236.5 865.88,-236.5 1022.12,-236.5 1022.12,-236.5 1028.12,-236.5 1034.12,-242.5 1034.12,-248.5 1034.12,-248.5 1034.12,-260.5 1034.12,-260.5 1034.12,-266.5 1028.12,-272.5 1022.12,-272.5"/>
<text xml:space="preserve" text-anchor="start" x="861.88" y="-256.2" font-family="Helvetica,sans-Serif" font-size="14.00"> &#160;&#160;&#160;&#160;&#160;</text>
<text xml:space="preserve" text-anchor="start" x="884.38" y="-256.2" font-family="Helvetica,sans-Serif" font-weight="bold" font-size="14.00">PyTorch / TensorFlow</text>
<text xml:space="preserve" text-anchor="start" x="876.88" y="-242.2" font-family="Helvetica,sans-Serif" font-size="14.00"> &#160;&#160;&#160;&#160;&#160;model inference &#160;&#160;&#160;</text>
</g>
<!-- compiler&#45;&gt;dl -->
<g id="edge7" class="edge">
<title>compiler&#45;&gt;dl</title>
<path fill="none" stroke="#546e7a" stroke-width="1.6" d="M622.68,-355.45C685.16,-344.3 767.42,-327.06 838,-303.75 859.55,-296.63 882.57,-286.48 901.64,-277.33"/>
<polygon fill="#546e7a" stroke="#546e7a" stroke-width="1.6" points="902.61,-279.77 908.2,-274.13 900.31,-275.06 902.61,-279.77"/>
</g>
<!-- arraybridge -->
<g id="node9" class="node">
<title>arraybridge</title>
<path fill="#eceff1" stroke="#455a64" stroke-width="1.3" d="M608.38,-195.5C608.38,-195.5 441.62,-195.5 441.62,-195.5 435.62,-195.5 429.62,-189.5 429.62,-183.5 429.62,-183.5 429.62,-143.5 429.62,-143.5 429.62,-137.5 435.62,-131.5 441.62,-131.5 441.62,-131.5 608.38,-131.5 608.38,-131.5 614.38,-131.5 620.38,-137.5 620.38,-143.5 620.38,-143.5 620.38,-183.5 620.38,-183.5 620.38,-189.5 614.38,-195.5 608.38,-195.5"/>
<text xml:space="preserve" text-anchor="start" x="437.62" y="-179.2" font-family="Helvetica,sans-Serif" font-size="14.00"> &#160;&#160;&#160;</text>
<text xml:space="preserve" text-anchor="start" x="452.62" y="-179.2" font-family="Helvetica,sans-Serif" font-weight="bold" font-size="14.00">ArrayBridge</text>
<text xml:space="preserve" text-anchor="start" x="437.62" y="-165.2" font-family="Helvetica,sans-Serif" font-size="14.00"> &#160;&#160;&#160;explicit conversion</text>
<text xml:space="preserve" text-anchor="start" x="437.62" y="-151.2" font-family="Helvetica,sans-Serif" font-size="14.00"> &#160;&#160;&#160;memory&#45;type awareness</text>
<text xml:space="preserve" text-anchor="start" x="437.62" y="-137.2" font-family="Helvetica,sans-Serif" font-size="14.00"> &#160;&#160;&#160;backend boundary visible &#160;</text>
</g>
<!-- numpy&#45;&gt;arraybridge -->
<g id="edge8" class="edge">
<title>numpy&#45;&gt;arraybridge</title>
<path fill="none" stroke="#546e7a" stroke-width="1.6" d="M172.08,-236.71C242.2,-222.36 343.52,-201.63 419.63,-186.06"/>
<polygon fill="#546e7a" stroke="#546e7a" stroke-width="1.6" points="420.06,-188.65 426.88,-184.58 419,-183.51 420.06,-188.65"/>
</g>
<!-- cupy&#45;&gt;arraybridge -->
<g id="edge9" class="edge">
<title>cupy&#45;&gt;arraybridge</title>
<path fill="none" stroke="#546e7a" stroke-width="1.6" d="M344.45,-235.92C370.56,-225.59 404.51,-212.16 435.91,-199.74"/>
<polygon fill="#546e7a" stroke="#546e7a" stroke-width="1.6" points="436.86,-202.19 442.87,-196.99 434.93,-197.31 436.86,-202.19"/>
</g>
<!-- cle&#45;&gt;arraybridge -->
<g id="edge10" class="edge">
<title>cle&#45;&gt;arraybridge</title>
<path fill="none" stroke="#546e7a" stroke-width="1.6" d="M525,-235.92C525,-227.23 525,-216.35 525,-205.72"/>
<polygon fill="#546e7a" stroke="#546e7a" stroke-width="1.6" points="527.63,-206.02 525,-198.52 522.38,-206.02 527.63,-206.02"/>
</g>
<!-- jax&#45;&gt;arraybridge -->
<g id="edge11" class="edge">
<title>jax&#45;&gt;arraybridge</title>
<path fill="none" stroke="#546e7a" stroke-width="1.6" d="M695.92,-235.92C671.31,-225.63 639.34,-212.28 609.73,-199.9"/>
<polygon fill="#546e7a" stroke="#546e7a" stroke-width="1.6" points="610.79,-197.5 602.86,-197.03 608.76,-202.34 610.79,-197.5"/>
</g>
<!-- dl&#45;&gt;arraybridge -->
<g id="edge12" class="edge">
<title>dl&#45;&gt;arraybridge</title>
<path fill="none" stroke="#546e7a" stroke-width="1.6" d="M860.97,-235.86C794.75,-221.8 701.6,-202.01 630.18,-186.84"/>
<polygon fill="#546e7a" stroke="#546e7a" stroke-width="1.6" points="630.94,-184.32 623.06,-185.33 629.85,-189.46 630.94,-184.32"/>
</g>
<!-- parity -->
<g id="node10" class="node">
<title>parity</title>
<path fill="#e8eaf6" stroke="#283593" stroke-width="2" d="M588.5,-78C588.5,-78 461.5,-78 461.5,-78 455.5,-78 449.5,-72 449.5,-66 449.5,-66 449.5,-12 449.5,-12 449.5,-6 455.5,0 461.5,0 461.5,0 588.5,0 588.5,0 594.5,0 600.5,-6 600.5,-12 600.5,-12 600.5,-66 600.5,-66 600.5,-72 594.5,-78 588.5,-78"/>
<text xml:space="preserve" text-anchor="start" x="457.5" y="-61.7" font-family="Helvetica,sans-Serif" font-size="14.00"> &#160;&#160;&#160;</text>
<text xml:space="preserve" text-anchor="start" x="472.5" y="-61.7" font-family="Helvetica,sans-Serif" font-weight="bold" font-size="14.00">Same parity policy</text>
<text xml:space="preserve" text-anchor="start" x="457.5" y="-47.7" font-family="Helvetica,sans-Serif" font-size="14.00"> &#160;&#160;&#160;dtype behavior</text>
<text xml:space="preserve" text-anchor="start" x="457.5" y="-33.7" font-family="Helvetica,sans-Serif" font-size="14.00"> &#160;&#160;&#160;boundary behavior</text>
<text xml:space="preserve" text-anchor="start" x="457.5" y="-19.7" font-family="Helvetica,sans-Serif" font-size="14.00"> &#160;&#160;&#160;label semantics</text>
<text xml:space="preserve" text-anchor="start" x="482.62" y="-5.7" font-family="Helvetica,sans-Serif" font-size="14.00"> &#160;&#160;&#160;reductions &#160;</text>
</g>
<!-- arraybridge&#45;&gt;parity -->
<g id="edge13" class="edge">
<title>arraybridge&#45;&gt;parity</title>
<path fill="none" stroke="#546e7a" stroke-width="1.6" d="M525,-130.95C525,-118.05 525,-102.83 525,-88.57"/>
<polygon fill="#546e7a" stroke="#546e7a" stroke-width="1.6" points="527.63,-88.81 525,-81.31 522.38,-88.81 527.63,-88.81"/>
<text xml:space="preserve" text-anchor="middle" x="623.62" y="-101.05" font-family="Helvetica,sans-Serif" font-size="11.00">outputs compared under same semantics</text>
</g>
</g>
</svg>
